<?xml version="1.0" encoding="UTF-8"?> <svg xmlns="http://www.w3.org/2000/svg" width="192" height="70" viewBox="0 0 192 70" fill="none"><path d="M74.8663 30.5606C74.8663 31.7287 75.4971 32.6632 76.7587 33.3641C78.067 34.0183 79.6324 34.6024 81.4547 35.1163C83.3237 35.5836 85.1928 36.1443 87.0618 36.7985C88.9308 37.4526 90.4962 38.5741 91.7578 40.1628C93.0661 41.7047 93.7202 43.6672 93.7202 46.0502C93.7202 49.4145 92.4119 52.0545 89.7953 53.9703C87.2253 55.886 83.9779 56.8439 80.0529 56.8439C76.5952 56.8439 73.6281 56.1197 71.1516 54.6712C68.8347 53.316 67.1109 51.4701 65.98 49.1334C65.8462 48.8568 65.9553 48.5271 66.2211 48.3728L71.6465 45.2225C71.9728 45.0331 72.3897 45.1867 72.5441 45.5309C73.8523 48.4471 76.3552 49.9051 80.0529 49.9051C84.0246 49.9051 86.0105 48.5968 86.0105 45.9801C86.0105 44.8587 85.3563 43.9476 84.048 43.2467C82.7864 42.5458 81.221 41.9617 79.352 41.4944C77.5297 40.9805 75.684 40.3964 73.815 39.7422C71.9459 39.0881 70.3573 38.0134 69.0489 36.5181C67.7873 34.9762 67.1565 33.037 67.1565 30.7007C67.1565 27.4767 68.3714 24.8834 70.8012 22.9209C73.2776 20.9584 76.3382 19.9771 79.9828 19.9771C82.8798 19.9771 85.4498 20.6313 87.6926 21.9396C89.8071 23.1048 91.4633 24.7083 92.6611 26.7502C92.8274 27.0336 92.7203 27.3947 92.4336 27.5554L87.1445 30.5196C86.8358 30.6926 86.4471 30.563 86.2755 30.2536C85.0149 27.9818 82.9174 26.8459 79.9828 26.8459C78.5343 26.8459 77.3194 27.1729 76.3382 27.8271C75.3569 28.4345 74.8663 29.3457 74.8663 30.5606Z" fill="white"></path><path d="M56.7519 21.2935C56.8372 21.0516 57.0659 20.8898 57.3224 20.8898H64.0841C64.5057 20.8898 64.798 21.3104 64.651 21.7055L51.4974 57.0556C48.2135 65.9041 42.7034 70.2113 34.9672 69.9773C34.647 69.9676 34.3957 69.7017 34.3957 69.3813V63.5145C34.3957 63.1665 34.6889 62.8919 35.0369 62.8951C37.1248 62.9139 38.8268 62.3925 40.143 61.3311C41.5915 60.2096 42.7831 58.434 43.7176 56.0043L43.9421 55.5552C44.0219 55.3956 44.0272 55.2088 43.9564 55.045L29.5738 21.7344C29.4014 21.3351 29.6942 20.8898 30.1291 20.8898H37.0741C37.3195 20.8898 37.5405 21.038 37.6337 21.2649L47.9229 46.332L56.7519 21.2935Z" fill="white"></path><path d="M9.1118 30.5606C9.1118 31.7288 9.74261 32.6633 11.0042 33.3642C12.3125 34.0183 13.8778 34.6024 15.7002 35.1164C17.5692 35.5837 19.4382 36.1444 21.3073 36.7985C23.1763 37.4527 24.7416 38.5741 26.0032 40.1628C27.3116 41.7048 27.9657 43.6673 27.9657 46.0503C27.9657 49.4146 26.6574 52.0546 24.0407 53.9703C21.4708 55.8861 18.2234 56.844 14.2984 56.844C10.8407 56.844 7.87357 56.1197 5.39709 54.6712C3.08023 53.3161 1.35637 51.4702 0.225518 49.1335C0.0916556 48.8569 0.200814 48.5271 0.466554 48.3728L5.89197 45.2226C6.21825 45.0331 6.63519 45.1868 6.78961 45.531C8.09773 48.4471 10.6007 49.9052 14.2984 49.9052C18.2701 49.9052 20.2559 48.5968 20.2559 45.9802C20.2559 44.8588 19.6018 43.9476 18.2935 43.2467C17.0319 42.5458 15.4665 41.9618 13.5975 41.4945C11.7752 40.9805 9.92951 40.3964 8.06047 39.7423C6.19143 39.0881 4.60275 38.0134 3.29442 36.5182C2.03282 34.9762 1.40202 33.0371 1.40202 30.7008C1.40202 27.4767 2.6169 24.8834 5.04665 22.9209C7.52312 20.9584 10.5837 19.9772 14.2283 19.9772C17.1253 19.9772 19.6952 20.6314 21.9381 21.9397C24.0526 23.1048 25.7087 24.7083 26.9066 26.7502C27.0729 27.0337 26.9658 27.3948 26.6791 27.5554L21.3899 30.5197C21.0813 30.6927 20.6926 30.5631 20.5209 30.2537C19.2604 27.9818 17.1628 26.8459 14.2283 26.8459C12.7798 26.8459 11.5649 27.173 10.5837 27.8272C9.60243 28.4346 9.1118 29.3458 9.1118 30.5606Z" fill="white"></path><path d="M183.876 7.66999C183.876 7.33594 184.147 7.06514 184.481 7.06514H190.841C191.175 7.06514 191.446 7.33594 191.446 7.66999V55.5225C191.446 55.8566 191.175 56.1274 190.841 56.1274H184.481C184.147 56.1274 183.876 55.8566 183.876 55.5225V51.081C181.026 55.0527 176.937 57.0385 171.611 57.0385C166.798 57.0385 162.686 55.263 159.275 51.7118C155.864 48.1139 154.158 43.745 154.158 38.6052C154.158 33.4186 155.864 29.0497 159.275 25.4985C162.686 21.9474 166.798 20.1718 171.611 20.1718C176.937 20.1718 181.026 22.1343 183.876 26.0592V7.66999ZM164.882 46.6654C166.985 48.768 169.625 49.8194 172.802 49.8194C175.979 49.8194 178.619 48.768 180.722 46.6654C182.825 44.516 183.876 41.8292 183.876 38.6052C183.876 35.3811 182.825 32.7177 180.722 30.615C178.619 28.4656 175.979 27.3909 172.802 27.3909C169.625 27.3909 166.985 28.4656 164.882 30.615C162.779 32.7177 161.728 35.3811 161.728 38.6052C161.728 41.8292 162.779 44.516 164.882 46.6654Z" fill="white"></path><path d="M144.937 0.179507C145.052 -0.0598356 145.404 -0.0598357 145.518 0.179507C147.064 3.40627 149.54 6.02757 152.585 7.6589C152.807 7.77813 152.807 8.10596 152.585 8.22519C149.54 9.85652 147.064 12.4778 145.518 15.7046C145.404 15.9439 145.052 15.9439 144.937 15.7046C143.391 12.4778 140.915 9.85652 137.871 8.22519C137.648 8.10596 137.648 7.77813 137.871 7.6589C140.915 6.02757 143.391 3.40627 144.937 0.179507Z" fill="url(#paint0_linear_579_2421)"></path><path fill-rule="evenodd" clip-rule="evenodd" d="M127.785 21.7541C127.785 21.42 128.055 21.1492 128.389 21.1492H134.749C135.083 21.1492 135.354 21.42 135.354 21.7541V55.5888C135.354 55.9229 135.083 56.1937 134.749 56.1937L128.389 56.1937C128.055 56.1937 127.785 55.9229 127.785 55.5888V51.1473C124.934 55.119 120.846 57.1048 115.519 57.1048C110.706 57.1048 106.594 55.3292 103.183 51.7781C99.7724 48.1802 98.0669 43.8113 98.0669 38.6714C98.0669 33.4849 99.7724 29.116 103.183 25.5648C106.594 22.0136 110.706 20.2381 115.519 20.2381C120.846 20.2381 124.934 22.2005 127.785 26.1255V21.7541ZM108.791 46.7317C110.893 48.8343 113.533 49.8857 116.711 49.8857C119.888 49.8857 122.528 48.8343 124.631 46.7317C126.733 44.5823 127.785 41.8955 127.785 38.6714C127.785 35.4473 126.733 32.784 124.631 30.6813C122.528 28.5319 119.888 27.4572 116.711 27.4572C113.533 27.4572 110.893 28.5319 108.791 30.6813C106.688 32.784 105.636 35.4473 105.636 38.6714C105.636 41.8955 106.688 44.5823 108.791 46.7317Z" fill="url(#paint1_linear_579_2421)"></path><path d="M141.862 56.1937C141.528 56.1937 141.257 55.9229 141.257 55.5889V21.7541C141.257 21.4201 141.528 21.1493 141.862 21.1493H148.222C148.556 21.1493 148.827 21.4201 148.827 21.7541V55.5889C148.827 55.9229 148.556 56.1937 148.222 56.1937H141.862Z" fill="url(#paint2_linear_579_2421)"></path><defs><linearGradient id="paint0_linear_579_2421" x1="101.156" y1="39.9521" x2="187.006" y2="-9.95661" gradientUnits="userSpaceOnUse"><stop stop-color="#6BD9B9"></stop><stop offset="0.698699" stop-color="#DEFF00"></stop></linearGradient><linearGradient id="paint1_linear_579_2421" x1="101.156" y1="39.9521" x2="187.006" y2="-9.95661" gradientUnits="userSpaceOnUse"><stop stop-color="#6BD9B9"></stop><stop offset="0.698699" stop-color="#DEFF00"></stop></linearGradient><linearGradient id="paint2_linear_579_2421" x1="101.156" y1="39.9521" x2="187.006" y2="-9.95661" gradientUnits="userSpaceOnUse"><stop stop-color="#6BD9B9"></stop><stop offset="0.698699" stop-color="#DEFF00"></stop></linearGradient></defs></svg> 